<svg xmlns="http://www.w3.org/2000/svg" xmlns:xlink="http://www.w3.org/1999/xlink" width="500" zoomAndPan="magnify" viewBox="0 0 375 374.999991" height="500" preserveAspectRatio="xMidYMid meet" version="1.0"><defs><g/><clipPath id="0e191f005a"><path d="M 24.125 124.335938 L 120.875 124.335938 L 120.875 241.335938 L 24.125 241.335938 Z M 24.125 124.335938 " clip-rule="nonzero"/></clipPath></defs><g fill="#727880" fill-opacity="1"><g transform="translate(124.444991, 206.300012)"><g><path d="M 7.328125 -8.296875 C 7.273438 -8.753906 7.078125 -9.109375 6.734375 -9.359375 C 6.390625 -9.609375 5.921875 -9.734375 5.328125 -9.734375 C 4.734375 -9.734375 4.273438 -9.609375 3.953125 -9.359375 C 3.628906 -9.117188 3.46875 -8.8125 3.46875 -8.4375 C 3.457031 -8.019531 3.632812 -7.703125 4 -7.484375 C 4.363281 -7.273438 4.800781 -7.113281 5.3125 -7 L 6.359375 -6.75 C 7.023438 -6.59375 7.617188 -6.367188 8.140625 -6.078125 C 8.671875 -5.796875 9.085938 -5.425781 9.390625 -4.96875 C 9.691406 -4.519531 9.84375 -3.972656 9.84375 -3.328125 C 9.832031 -2.265625 9.429688 -1.414062 8.640625 -0.78125 C 7.847656 -0.144531 6.742188 0.171875 5.328125 0.171875 C 3.910156 0.171875 2.78125 -0.148438 1.9375 -0.796875 C 1.101562 -1.441406 0.671875 -2.394531 0.640625 -3.65625 L 3.015625 -3.65625 C 3.054688 -3.070312 3.285156 -2.628906 3.703125 -2.328125 C 4.117188 -2.035156 4.648438 -1.890625 5.296875 -1.890625 C 5.921875 -1.890625 6.421875 -2.019531 6.796875 -2.28125 C 7.171875 -2.550781 7.359375 -2.898438 7.359375 -3.328125 C 7.359375 -3.722656 7.1875 -4.023438 6.84375 -4.234375 C 6.5 -4.453125 6.007812 -4.632812 5.375 -4.78125 L 4.109375 -5.109375 C 3.128906 -5.335938 2.351562 -5.707031 1.78125 -6.21875 C 1.21875 -6.726562 0.9375 -7.410156 0.9375 -8.265625 C 0.9375 -8.972656 1.125 -9.59375 1.5 -10.125 C 1.882812 -10.65625 2.410156 -11.066406 3.078125 -11.359375 C 3.742188 -11.648438 4.503906 -11.796875 5.359375 -11.796875 C 6.210938 -11.796875 6.960938 -11.644531 7.609375 -11.34375 C 8.253906 -11.050781 8.757812 -10.640625 9.125 -10.109375 C 9.488281 -9.585938 9.675781 -8.984375 9.6875 -8.296875 Z M 7.328125 -8.296875 "/></g></g></g><g fill="#727880" fill-opacity="1"><g transform="translate(134.519619, 206.300012)"><g><path d="M 4.9375 0.171875 C 4.050781 0.171875 3.28125 -0.0078125 2.625 -0.375 C 1.976562 -0.738281 1.476562 -1.253906 1.125 -1.921875 C 0.78125 -2.597656 0.609375 -3.398438 0.609375 -4.328125 C 0.609375 -5.222656 0.78125 -6.007812 1.125 -6.6875 C 1.476562 -7.363281 1.972656 -7.890625 2.609375 -8.265625 C 3.242188 -8.648438 3.988281 -8.84375 4.84375 -8.84375 C 5.613281 -8.84375 6.304688 -8.675781 6.921875 -8.34375 C 7.546875 -8.019531 8.039062 -7.53125 8.40625 -6.875 C 8.769531 -6.21875 8.953125 -5.394531 8.953125 -4.40625 L 8.953125 -3.75 L 3 -3.75 L 3 -3.734375 C 3 -3.085938 3.175781 -2.578125 3.53125 -2.203125 C 3.894531 -1.828125 4.378906 -1.640625 4.984375 -1.640625 C 5.390625 -1.640625 5.738281 -1.722656 6.03125 -1.890625 C 6.332031 -2.054688 6.539062 -2.304688 6.65625 -2.640625 L 8.890625 -2.5 C 8.722656 -1.6875 8.289062 -1.035156 7.59375 -0.546875 C 6.90625 -0.0664062 6.019531 0.171875 4.9375 0.171875 Z M 3 -5.25 L 6.671875 -5.25 C 6.671875 -5.757812 6.503906 -6.179688 6.171875 -6.515625 C 5.835938 -6.859375 5.410156 -7.03125 4.890625 -7.03125 C 4.347656 -7.03125 3.90625 -6.851562 3.5625 -6.5 C 3.21875 -6.15625 3.03125 -5.738281 3 -5.25 Z M 3 -5.25 "/></g></g></g><g fill="#727880" fill-opacity="1"><g transform="translate(143.679704, 206.300012)"><g><path d="M 4.90625 0.171875 C 4.007812 0.171875 3.238281 -0.015625 2.59375 -0.390625 C 1.957031 -0.773438 1.46875 -1.304688 1.125 -1.984375 C 0.78125 -2.660156 0.609375 -3.441406 0.609375 -4.328125 C 0.609375 -5.222656 0.78125 -6.007812 1.125 -6.6875 C 1.476562 -7.363281 1.972656 -7.890625 2.609375 -8.265625 C 3.253906 -8.648438 4.015625 -8.84375 4.890625 -8.84375 C 5.660156 -8.84375 6.332031 -8.703125 6.90625 -8.421875 C 7.476562 -8.148438 7.925781 -7.765625 8.25 -7.265625 C 8.582031 -6.765625 8.769531 -6.175781 8.8125 -5.5 L 6.515625 -5.5 C 6.453125 -5.9375 6.285156 -6.285156 6.015625 -6.546875 C 5.742188 -6.816406 5.382812 -6.953125 4.9375 -6.953125 C 4.375 -6.953125 3.921875 -6.726562 3.578125 -6.28125 C 3.242188 -5.832031 3.078125 -5.191406 3.078125 -4.359375 C 3.078125 -3.523438 3.242188 -2.878906 3.578125 -2.421875 C 3.921875 -1.972656 4.375 -1.75 4.9375 -1.75 C 5.351562 -1.75 5.703125 -1.875 5.984375 -2.125 C 6.273438 -2.375 6.453125 -2.734375 6.515625 -3.203125 L 8.8125 -3.203125 C 8.769531 -2.535156 8.585938 -1.945312 8.265625 -1.4375 C 7.941406 -0.925781 7.492188 -0.53125 6.921875 -0.25 C 6.359375 0.03125 5.6875 0.171875 4.90625 0.171875 Z M 4.90625 0.171875 "/></g></g></g><g fill="#727880" fill-opacity="1"><g transform="translate(152.675051, 206.300012)"><g><path d="M 6.5625 -3.71875 L 6.5625 -8.734375 L 8.984375 -8.734375 L 8.984375 0 L 6.65625 0 L 6.65625 -1.578125 L 6.5625 -1.578125 C 6.363281 -1.066406 6.035156 -0.65625 5.578125 -0.34375 C 5.128906 -0.0390625 4.578125 0.109375 3.921875 0.109375 C 3.046875 0.109375 2.332031 -0.179688 1.78125 -0.765625 C 1.238281 -1.347656 0.96875 -2.148438 0.96875 -3.171875 L 0.96875 -8.734375 L 3.390625 -8.734375 L 3.390625 -3.609375 C 3.390625 -3.085938 3.523438 -2.675781 3.796875 -2.375 C 4.066406 -2.082031 4.429688 -1.9375 4.890625 -1.9375 C 5.328125 -1.9375 5.710938 -2.085938 6.046875 -2.390625 C 6.390625 -2.691406 6.5625 -3.132812 6.5625 -3.71875 Z M 6.5625 -3.71875 "/></g></g></g><g fill="#727880" fill-opacity="1"><g transform="translate(162.221397, 206.300012)"><g><path d="M 0.96875 0 L 0.96875 -8.734375 L 3.3125 -8.734375 L 3.3125 -7.203125 L 3.40625 -7.203125 C 3.5625 -7.742188 3.828125 -8.15625 4.203125 -8.4375 C 4.578125 -8.71875 5.007812 -8.859375 5.5 -8.859375 C 5.738281 -8.859375 5.957031 -8.828125 6.15625 -8.765625 C 6.351562 -8.710938 6.53125 -8.632812 6.6875 -8.53125 L 5.96875 -6.53125 C 5.851562 -6.59375 5.726562 -6.640625 5.59375 -6.671875 C 5.457031 -6.710938 5.304688 -6.734375 5.140625 -6.734375 C 4.648438 -6.734375 4.234375 -6.566406 3.890625 -6.234375 C 3.554688 -5.898438 3.390625 -5.46875 3.390625 -4.9375 L 3.390625 0 Z M 0.96875 0 "/></g></g></g><g fill="#727880" fill-opacity="1"><g transform="translate(168.677621, 206.300012)"><g><path d="M 0.96875 0 L 0.96875 -8.734375 L 3.390625 -8.734375 L 3.390625 0 Z M 2.1875 -9.859375 C 1.832031 -9.859375 1.523438 -9.976562 1.265625 -10.21875 C 1.003906 -10.457031 0.875 -10.742188 0.875 -11.078125 C 0.875 -11.410156 1.003906 -11.695312 1.265625 -11.9375 C 1.523438 -12.175781 1.832031 -12.296875 2.1875 -12.296875 C 2.550781 -12.296875 2.859375 -12.175781 3.109375 -11.9375 C 3.367188 -11.695312 3.5 -11.410156 3.5 -11.078125 C 3.5 -10.742188 3.367188 -10.457031 3.109375 -10.21875 C 2.859375 -9.976562 2.550781 -9.859375 2.1875 -9.859375 Z M 2.1875 -9.859375 "/></g></g></g><g fill="#727880" fill-opacity="1"><g transform="translate(172.628791, 206.300012)"><g><path d="M 5.609375 -8.734375 L 5.609375 -6.90625 L 3.96875 -6.90625 L 3.96875 -2.6875 C 3.96875 -2.351562 4.039062 -2.125 4.1875 -2 C 4.34375 -1.882812 4.539062 -1.828125 4.78125 -1.828125 C 4.894531 -1.828125 5.007812 -1.835938 5.125 -1.859375 C 5.238281 -1.878906 5.328125 -1.894531 5.390625 -1.90625 L 5.765625 -0.109375 C 5.640625 -0.0664062 5.46875 -0.0195312 5.25 0.03125 C 5.03125 0.0820312 4.765625 0.113281 4.453125 0.125 C 3.578125 0.15625 2.875 -0.0351562 2.34375 -0.453125 C 1.8125 -0.867188 1.546875 -1.503906 1.546875 -2.359375 L 1.546875 -6.90625 L 0.359375 -6.90625 L 0.359375 -8.734375 L 1.546875 -8.734375 L 1.546875 -10.8125 L 3.96875 -10.8125 L 3.96875 -8.734375 Z M 5.609375 -8.734375 "/></g></g></g><g fill="#727880" fill-opacity="1"><g transform="translate(178.443127, 206.300012)"><g><path d="M 2.375 3.390625 C 2.03125 3.390625 1.734375 3.359375 1.484375 3.296875 C 1.242188 3.242188 1.054688 3.1875 0.921875 3.125 L 1.46875 1.25 C 1.894531 1.382812 2.253906 1.421875 2.546875 1.359375 C 2.835938 1.296875 3.070312 1.066406 3.25 0.671875 L 3.40625 0.25 L 0.265625 -8.734375 L 2.8125 -8.734375 L 4.625 -2.3125 L 4.71875 -2.3125 L 6.546875 -8.734375 L 9.109375 -8.734375 L 5.6875 1 C 5.445312 1.695312 5.054688 2.269531 4.515625 2.71875 C 3.972656 3.164062 3.257812 3.390625 2.375 3.390625 Z M 2.375 3.390625 "/></g></g></g><g fill="#727880" fill-opacity="1"><g transform="translate(187.415758, 206.300012)"><g/></g></g><g fill="#727880" fill-opacity="1"><g transform="translate(190.725052, 206.300012)"><g><path d="M 0.5625 -9.609375 L 0.5625 -11.640625 L 10.125 -11.640625 L 10.125 -9.609375 L 6.5625 -9.609375 L 6.5625 0 L 4.125 0 L 4.125 -9.609375 Z M 0.5625 -9.609375 "/></g></g></g><g fill="#727880" fill-opacity="1"><g transform="translate(201.015527, 206.300012)"><g><path d="M 4.9375 0.171875 C 4.050781 0.171875 3.28125 -0.0078125 2.625 -0.375 C 1.976562 -0.738281 1.476562 -1.253906 1.125 -1.921875 C 0.78125 -2.597656 0.609375 -3.398438 0.609375 -4.328125 C 0.609375 -5.222656 0.78125 -6.007812 1.125 -6.6875 C 1.476562 -7.363281 1.972656 -7.890625 2.609375 -8.265625 C 3.242188 -8.648438 3.988281 -8.84375 4.84375 -8.84375 C 5.613281 -8.84375 6.304688 -8.675781 6.921875 -8.34375 C 7.546875 -8.019531 8.039062 -7.53125 8.40625 -6.875 C 8.769531 -6.21875 8.953125 -5.394531 8.953125 -4.40625 L 8.953125 -3.75 L 3 -3.75 L 3 -3.734375 C 3 -3.085938 3.175781 -2.578125 3.53125 -2.203125 C 3.894531 -1.828125 4.378906 -1.640625 4.984375 -1.640625 C 5.390625 -1.640625 5.738281 -1.722656 6.03125 -1.890625 C 6.332031 -2.054688 6.539062 -2.304688 6.65625 -2.640625 L 8.890625 -2.5 C 8.722656 -1.6875 8.289062 -1.035156 7.59375 -0.546875 C 6.90625 -0.0664062 6.019531 0.171875 4.9375 0.171875 Z M 3 -5.25 L 6.671875 -5.25 C 6.671875 -5.757812 6.503906 -6.179688 6.171875 -6.515625 C 5.835938 -6.859375 5.410156 -7.03125 4.890625 -7.03125 C 4.347656 -7.03125 3.90625 -6.851562 3.5625 -6.5 C 3.21875 -6.15625 3.03125 -5.738281 3 -5.25 Z M 3 -5.25 "/></g></g></g><g fill="#727880" fill-opacity="1"><g transform="translate(210.175612, 206.300012)"><g><path d="M 8.234375 -6.234375 L 6.015625 -6.109375 C 5.953125 -6.378906 5.796875 -6.613281 5.546875 -6.8125 C 5.304688 -7.019531 4.972656 -7.125 4.546875 -7.125 C 4.171875 -7.125 3.851562 -7.046875 3.59375 -6.890625 C 3.332031 -6.734375 3.207031 -6.523438 3.21875 -6.265625 C 3.207031 -6.054688 3.285156 -5.878906 3.453125 -5.734375 C 3.628906 -5.585938 3.921875 -5.472656 4.328125 -5.390625 L 5.90625 -5.0625 C 7.582031 -4.71875 8.421875 -3.929688 8.421875 -2.703125 C 8.421875 -2.128906 8.253906 -1.625 7.921875 -1.1875 C 7.585938 -0.757812 7.128906 -0.425781 6.546875 -0.1875 C 5.960938 0.0507812 5.296875 0.171875 4.546875 0.171875 C 3.390625 0.171875 2.46875 -0.0664062 1.78125 -0.546875 C 1.09375 -1.035156 0.691406 -1.695312 0.578125 -2.53125 L 2.953125 -2.65625 C 3.035156 -2.300781 3.210938 -2.03125 3.484375 -1.84375 C 3.753906 -1.664062 4.109375 -1.578125 4.546875 -1.578125 C 4.972656 -1.578125 5.3125 -1.660156 5.5625 -1.828125 C 5.820312 -1.992188 5.957031 -2.203125 5.96875 -2.453125 C 5.957031 -2.890625 5.582031 -3.179688 4.84375 -3.328125 L 3.328125 -3.625 C 1.640625 -3.96875 0.800781 -4.800781 0.8125 -6.125 C 0.8125 -6.96875 1.144531 -7.628906 1.8125 -8.109375 C 2.488281 -8.597656 3.390625 -8.84375 4.515625 -8.84375 C 5.617188 -8.84375 6.484375 -8.609375 7.109375 -8.140625 C 7.742188 -7.671875 8.117188 -7.035156 8.234375 -6.234375 Z M 8.234375 -6.234375 "/></g></g></g><g fill="#727880" fill-opacity="1"><g transform="translate(218.761982, 206.300012)"><g><path d="M 5.609375 -8.734375 L 5.609375 -6.90625 L 3.96875 -6.90625 L 3.96875 -2.6875 C 3.96875 -2.351562 4.039062 -2.125 4.1875 -2 C 4.34375 -1.882812 4.539062 -1.828125 4.78125 -1.828125 C 4.894531 -1.828125 5.007812 -1.835938 5.125 -1.859375 C 5.238281 -1.878906 5.328125 -1.894531 5.390625 -1.90625 L 5.765625 -0.109375 C 5.640625 -0.0664062 5.46875 -0.0195312 5.25 0.03125 C 5.03125 0.0820312 4.765625 0.113281 4.453125 0.125 C 3.578125 0.15625 2.875 -0.0351562 2.34375 -0.453125 C 1.8125 -0.867188 1.546875 -1.503906 1.546875 -2.359375 L 1.546875 -6.90625 L 0.359375 -6.90625 L 0.359375 -8.734375 L 1.546875 -8.734375 L 1.546875 -10.8125 L 3.96875 -10.8125 L 3.96875 -8.734375 Z M 5.609375 -8.734375 "/></g></g></g><g fill="#727880" fill-opacity="1"><g transform="translate(224.576324, 206.300012)"><g><path d="M 0.96875 0 L 0.96875 -8.734375 L 3.390625 -8.734375 L 3.390625 0 Z M 2.1875 -9.859375 C 1.832031 -9.859375 1.523438 -9.976562 1.265625 -10.21875 C 1.003906 -10.457031 0.875 -10.742188 0.875 -11.078125 C 0.875 -11.410156 1.003906 -11.695312 1.265625 -11.9375 C 1.523438 -12.175781 1.832031 -12.296875 2.1875 -12.296875 C 2.550781 -12.296875 2.859375 -12.175781 3.109375 -11.9375 C 3.367188 -11.695312 3.5 -11.410156 3.5 -11.078125 C 3.5 -10.742188 3.367188 -10.457031 3.109375 -10.21875 C 2.859375 -9.976562 2.550781 -9.859375 2.1875 -9.859375 Z M 2.1875 -9.859375 "/></g></g></g><g fill="#727880" fill-opacity="1"><g transform="translate(228.5275, 206.300012)"><g><path d="M 3.390625 -5.046875 L 3.390625 0 L 0.96875 0 L 0.96875 -8.734375 L 3.265625 -8.734375 L 3.265625 -7.1875 L 3.375 -7.1875 C 3.570312 -7.695312 3.894531 -8.097656 4.34375 -8.390625 C 4.800781 -8.691406 5.351562 -8.84375 6 -8.84375 C 6.90625 -8.84375 7.632812 -8.546875 8.1875 -7.953125 C 8.738281 -7.367188 9.015625 -6.570312 9.015625 -5.5625 L 9.015625 0 L 6.59375 0 L 6.59375 -5.125 C 6.59375 -5.65625 6.453125 -6.070312 6.171875 -6.375 C 5.898438 -6.675781 5.523438 -6.828125 5.046875 -6.828125 C 4.554688 -6.828125 4.15625 -6.671875 3.84375 -6.359375 C 3.539062 -6.046875 3.390625 -5.609375 3.390625 -5.046875 Z M 3.390625 -5.046875 "/></g></g></g><g fill="#727880" fill-opacity="1"><g transform="translate(238.073851, 206.300012)"><g><path d="M 4.890625 3.390625 C 3.722656 3.390625 2.800781 3.160156 2.125 2.703125 C 1.457031 2.242188 1.050781 1.679688 0.90625 1.015625 L 3.140625 0.71875 C 3.242188 0.957031 3.4375 1.171875 3.71875 1.359375 C 4.007812 1.554688 4.421875 1.65625 4.953125 1.65625 C 5.484375 1.65625 5.914062 1.53125 6.25 1.28125 C 6.59375 1.03125 6.765625 0.617188 6.765625 0.046875 L 6.765625 -1.546875 L 6.671875 -1.546875 C 6.515625 -1.179688 6.234375 -0.851562 5.828125 -0.5625 C 5.429688 -0.269531 4.882812 -0.125 4.1875 -0.125 C 3.53125 -0.125 2.929688 -0.273438 2.390625 -0.578125 C 1.859375 -0.890625 1.429688 -1.359375 1.109375 -1.984375 C 0.796875 -2.617188 0.640625 -3.414062 0.640625 -4.375 C 0.640625 -5.375 0.800781 -6.203125 1.125 -6.859375 C 1.445312 -7.515625 1.875 -8.007812 2.40625 -8.34375 C 2.945312 -8.675781 3.535156 -8.84375 4.171875 -8.84375 C 4.660156 -8.84375 5.066406 -8.757812 5.390625 -8.59375 C 5.722656 -8.425781 5.992188 -8.222656 6.203125 -7.984375 C 6.410156 -7.742188 6.566406 -7.503906 6.671875 -7.265625 L 6.765625 -7.265625 L 6.765625 -8.734375 L 9.171875 -8.734375 L 9.171875 0.078125 C 9.171875 0.804688 8.984375 1.414062 8.609375 1.90625 C 8.242188 2.394531 7.738281 2.765625 7.09375 3.015625 C 6.457031 3.265625 5.722656 3.390625 4.890625 3.390625 Z M 4.953125 -1.9375 C 5.535156 -1.9375 5.984375 -2.148438 6.296875 -2.578125 C 6.617188 -3.015625 6.78125 -3.617188 6.78125 -4.390625 C 6.78125 -5.160156 6.617188 -5.773438 6.296875 -6.234375 C 5.984375 -6.691406 5.535156 -6.921875 4.953125 -6.921875 C 4.347656 -6.921875 3.890625 -6.679688 3.578125 -6.203125 C 3.265625 -5.734375 3.109375 -5.128906 3.109375 -4.390625 C 3.109375 -3.640625 3.265625 -3.039062 3.578125 -2.59375 C 3.898438 -2.15625 4.359375 -1.9375 4.953125 -1.9375 Z M 4.953125 -1.9375 "/></g></g></g><g fill="#727880" fill-opacity="1"><g transform="translate(247.80197, 206.300012)"><g/></g></g><g fill="#727880" fill-opacity="1"><g transform="translate(251.111269, 206.300012)"><g><path d="M 3.453125 0.171875 C 2.617188 0.171875 1.925781 -0.046875 1.375 -0.484375 C 0.832031 -0.921875 0.5625 -1.570312 0.5625 -2.4375 C 0.5625 -3.09375 0.710938 -3.601562 1.015625 -3.96875 C 1.328125 -4.34375 1.726562 -4.613281 2.21875 -4.78125 C 2.71875 -4.957031 3.253906 -5.070312 3.828125 -5.125 C 4.585938 -5.195312 5.128906 -5.273438 5.453125 -5.359375 C 5.785156 -5.441406 5.953125 -5.625 5.953125 -5.90625 L 5.953125 -5.9375 C 5.953125 -6.300781 5.835938 -6.582031 5.609375 -6.78125 C 5.378906 -6.976562 5.0625 -7.078125 4.65625 -7.078125 C 4.21875 -7.078125 3.867188 -6.976562 3.609375 -6.78125 C 3.359375 -6.59375 3.191406 -6.351562 3.109375 -6.0625 L 0.859375 -6.25 C 1.023438 -7.039062 1.4375 -7.671875 2.09375 -8.140625 C 2.757812 -8.609375 3.617188 -8.84375 4.671875 -8.84375 C 5.316406 -8.84375 5.921875 -8.738281 6.484375 -8.53125 C 7.046875 -8.332031 7.5 -8.015625 7.84375 -7.578125 C 8.195312 -7.140625 8.375 -6.578125 8.375 -5.890625 L 8.375 0 L 6.078125 0 L 6.078125 -1.203125 L 6 -1.203125 C 5.789062 -0.804688 5.472656 -0.476562 5.046875 -0.21875 C 4.628906 0.0390625 4.097656 0.171875 3.453125 0.171875 Z M 4.140625 -1.5 C 4.671875 -1.5 5.109375 -1.65625 5.453125 -1.96875 C 5.796875 -2.28125 5.96875 -2.664062 5.96875 -3.125 L 5.96875 -4.046875 C 5.875 -3.984375 5.726562 -3.925781 5.53125 -3.875 C 5.332031 -3.820312 5.117188 -3.773438 4.890625 -3.734375 C 4.660156 -3.703125 4.457031 -3.675781 4.28125 -3.65625 C 3.851562 -3.59375 3.507812 -3.472656 3.25 -3.296875 C 3 -3.117188 2.875 -2.859375 2.875 -2.515625 C 2.875 -2.179688 2.992188 -1.925781 3.234375 -1.75 C 3.472656 -1.582031 3.773438 -1.5 4.140625 -1.5 Z M 4.140625 -1.5 "/></g></g></g><g fill="#727880" fill-opacity="1"><g transform="translate(259.993017, 206.300012)"><g><path d="M 3.390625 -5.046875 L 3.390625 0 L 0.96875 0 L 0.96875 -8.734375 L 3.265625 -8.734375 L 3.265625 -7.1875 L 3.375 -7.1875 C 3.570312 -7.695312 3.894531 -8.097656 4.34375 -8.390625 C 4.800781 -8.691406 5.351562 -8.84375 6 -8.84375 C 6.90625 -8.84375 7.632812 -8.546875 8.1875 -7.953125 C 8.738281 -7.367188 9.015625 -6.570312 9.015625 -5.5625 L 9.015625 0 L 6.59375 0 L 6.59375 -5.125 C 6.59375 -5.65625 6.453125 -6.070312 6.171875 -6.375 C 5.898438 -6.675781 5.523438 -6.828125 5.046875 -6.828125 C 4.554688 -6.828125 4.15625 -6.671875 3.84375 -6.359375 C 3.539062 -6.046875 3.390625 -5.609375 3.390625 -5.046875 Z M 3.390625 -5.046875 "/></g></g></g><g fill="#727880" fill-opacity="1"><g transform="translate(269.539357, 206.300012)"><g><path d="M 4.1875 0.140625 C 3.519531 0.140625 2.914062 -0.03125 2.375 -0.375 C 1.84375 -0.71875 1.421875 -1.222656 1.109375 -1.890625 C 0.796875 -2.554688 0.640625 -3.378906 0.640625 -4.359375 C 0.640625 -5.359375 0.800781 -6.1875 1.125 -6.84375 C 1.445312 -7.507812 1.875 -8.007812 2.40625 -8.34375 C 2.945312 -8.675781 3.535156 -8.84375 4.171875 -8.84375 C 4.660156 -8.84375 5.066406 -8.757812 5.390625 -8.59375 C 5.722656 -8.425781 5.988281 -8.222656 6.1875 -7.984375 C 6.394531 -7.742188 6.550781 -7.503906 6.65625 -7.265625 L 6.734375 -7.265625 L 6.734375 -11.640625 L 9.140625 -11.640625 L 9.140625 0 L 6.765625 0 L 6.765625 -1.390625 L 6.65625 -1.390625 C 6.550781 -1.148438 6.394531 -0.910156 6.1875 -0.671875 C 5.976562 -0.441406 5.707031 -0.25 5.375 -0.09375 C 5.050781 0.0625 4.65625 0.140625 4.1875 0.140625 Z M 4.953125 -1.78125 C 5.535156 -1.78125 5.984375 -2.015625 6.296875 -2.484375 C 6.617188 -2.960938 6.78125 -3.585938 6.78125 -4.359375 C 6.78125 -5.140625 6.617188 -5.757812 6.296875 -6.21875 C 5.984375 -6.6875 5.535156 -6.921875 4.953125 -6.921875 C 4.347656 -6.921875 3.890625 -6.679688 3.578125 -6.203125 C 3.265625 -5.734375 3.109375 -5.117188 3.109375 -4.359375 C 3.109375 -3.597656 3.265625 -2.976562 3.578125 -2.5 C 3.898438 -2.019531 4.359375 -1.78125 4.953125 -1.78125 Z M 4.953125 -1.78125 "/></g></g></g><g fill="#727880" fill-opacity="1"><g transform="translate(279.301556, 206.300012)"><g/></g></g><g fill="#727880" fill-opacity="1"><g transform="translate(282.610855, 206.300012)"><g><path d="M 1.015625 0 L 1.015625 -11.640625 L 8.859375 -11.640625 L 8.859375 -9.609375 L 3.46875 -9.609375 L 3.46875 -6.828125 L 8.453125 -6.828125 L 8.453125 -4.8125 L 3.46875 -4.8125 L 3.46875 -2.03125 L 8.875 -2.03125 L 8.875 0 Z M 1.015625 0 "/></g></g></g><g fill="#727880" fill-opacity="1"><g transform="translate(292.009509, 206.300012)"><g><path d="M 9.109375 -8.734375 L 6.046875 0 L 3.328125 0 L 0.265625 -8.734375 L 2.828125 -8.734375 L 4.640625 -2.484375 L 4.734375 -2.484375 L 6.546875 -8.734375 Z M 9.109375 -8.734375 "/></g></g></g><g fill="#727880" fill-opacity="1"><g transform="translate(300.982134, 206.300012)"><g><path d="M 3.453125 0.171875 C 2.617188 0.171875 1.925781 -0.046875 1.375 -0.484375 C 0.832031 -0.921875 0.5625 -1.570312 0.5625 -2.4375 C 0.5625 -3.09375 0.710938 -3.601562 1.015625 -3.96875 C 1.328125 -4.34375 1.726562 -4.613281 2.21875 -4.78125 C 2.71875 -4.957031 3.253906 -5.070312 3.828125 -5.125 C 4.585938 -5.195312 5.128906 -5.273438 5.453125 -5.359375 C 5.785156 -5.441406 5.953125 -5.625 5.953125 -5.90625 L 5.953125 -5.9375 C 5.953125 -6.300781 5.835938 -6.582031 5.609375 -6.78125 C 5.378906 -6.976562 5.0625 -7.078125 4.65625 -7.078125 C 4.21875 -7.078125 3.867188 -6.976562 3.609375 -6.78125 C 3.359375 -6.59375 3.191406 -6.351562 3.109375 -6.0625 L 0.859375 -6.25 C 1.023438 -7.039062 1.4375 -7.671875 2.09375 -8.140625 C 2.757812 -8.609375 3.617188 -8.84375 4.671875 -8.84375 C 5.316406 -8.84375 5.921875 -8.738281 6.484375 -8.53125 C 7.046875 -8.332031 7.5 -8.015625 7.84375 -7.578125 C 8.195312 -7.140625 8.375 -6.578125 8.375 -5.890625 L 8.375 0 L 6.078125 0 L 6.078125 -1.203125 L 6 -1.203125 C 5.789062 -0.804688 5.472656 -0.476562 5.046875 -0.21875 C 4.628906 0.0390625 4.097656 0.171875 3.453125 0.171875 Z M 4.140625 -1.5 C 4.671875 -1.5 5.109375 -1.65625 5.453125 -1.96875 C 5.796875 -2.28125 5.96875 -2.664062 5.96875 -3.125 L 5.96875 -4.046875 C 5.875 -3.984375 5.726562 -3.925781 5.53125 -3.875 C 5.332031 -3.820312 5.117188 -3.773438 4.890625 -3.734375 C 4.660156 -3.703125 4.457031 -3.675781 4.28125 -3.65625 C 3.851562 -3.59375 3.507812 -3.472656 3.25 -3.296875 C 3 -3.117188 2.875 -2.859375 2.875 -2.515625 C 2.875 -2.179688 2.992188 -1.925781 3.234375 -1.75 C 3.472656 -1.582031 3.773438 -1.5 4.140625 -1.5 Z M 4.140625 -1.5 "/></g></g></g><g fill="#727880" fill-opacity="1"><g transform="translate(309.863871, 206.300012)"><g><path d="M 3.390625 -11.640625 L 3.390625 0 L 0.96875 0 L 0.96875 -11.640625 Z M 3.390625 -11.640625 "/></g></g></g><g fill="#727880" fill-opacity="1"><g transform="translate(313.815046, 206.300012)"><g><path d="M 6.5625 -3.71875 L 6.5625 -8.734375 L 8.984375 -8.734375 L 8.984375 0 L 6.65625 0 L 6.65625 -1.578125 L 6.5625 -1.578125 C 6.363281 -1.066406 6.035156 -0.65625 5.578125 -0.34375 C 5.128906 -0.0390625 4.578125 0.109375 3.921875 0.109375 C 3.046875 0.109375 2.332031 -0.179688 1.78125 -0.765625 C 1.238281 -1.347656 0.96875 -2.148438 0.96875 -3.171875 L 0.96875 -8.734375 L 3.390625 -8.734375 L 3.390625 -3.609375 C 3.390625 -3.085938 3.523438 -2.675781 3.796875 -2.375 C 4.066406 -2.082031 4.429688 -1.9375 4.890625 -1.9375 C 5.328125 -1.9375 5.710938 -2.085938 6.046875 -2.390625 C 6.390625 -2.691406 6.5625 -3.132812 6.5625 -3.71875 Z M 6.5625 -3.71875 "/></g></g></g><g fill="#727880" fill-opacity="1"><g transform="translate(323.361398, 206.300012)"><g><path d="M 3.453125 0.171875 C 2.617188 0.171875 1.925781 -0.046875 1.375 -0.484375 C 0.832031 -0.921875 0.5625 -1.570312 0.5625 -2.4375 C 0.5625 -3.09375 0.710938 -3.601562 1.015625 -3.96875 C 1.328125 -4.34375 1.726562 -4.613281 2.21875 -4.78125 C 2.71875 -4.957031 3.253906 -5.070312 3.828125 -5.125 C 4.585938 -5.195312 5.128906 -5.273438 5.453125 -5.359375 C 5.785156 -5.441406 5.953125 -5.625 5.953125 -5.90625 L 5.953125 -5.9375 C 5.953125 -6.300781 5.835938 -6.582031 5.609375 -6.78125 C 5.378906 -6.976562 5.0625 -7.078125 4.65625 -7.078125 C 4.21875 -7.078125 3.867188 -6.976562 3.609375 -6.78125 C 3.359375 -6.59375 3.191406 -6.351562 3.109375 -6.0625 L 0.859375 -6.25 C 1.023438 -7.039062 1.4375 -7.671875 2.09375 -8.140625 C 2.757812 -8.609375 3.617188 -8.84375 4.671875 -8.84375 C 5.316406 -8.84375 5.921875 -8.738281 6.484375 -8.53125 C 7.046875 -8.332031 7.5 -8.015625 7.84375 -7.578125 C 8.195312 -7.140625 8.375 -6.578125 8.375 -5.890625 L 8.375 0 L 6.078125 0 L 6.078125 -1.203125 L 6 -1.203125 C 5.789062 -0.804688 5.472656 -0.476562 5.046875 -0.21875 C 4.628906 0.0390625 4.097656 0.171875 3.453125 0.171875 Z M 4.140625 -1.5 C 4.671875 -1.5 5.109375 -1.65625 5.453125 -1.96875 C 5.796875 -2.28125 5.96875 -2.664062 5.96875 -3.125 L 5.96875 -4.046875 C 5.875 -3.984375 5.726562 -3.925781 5.53125 -3.875 C 5.332031 -3.820312 5.117188 -3.773438 4.890625 -3.734375 C 4.660156 -3.703125 4.457031 -3.675781 4.28125 -3.65625 C 3.851562 -3.59375 3.507812 -3.472656 3.25 -3.296875 C 3 -3.117188 2.875 -2.859375 2.875 -2.515625 C 2.875 -2.179688 2.992188 -1.925781 3.234375 -1.75 C 3.472656 -1.582031 3.773438 -1.5 4.140625 -1.5 Z M 4.140625 -1.5 "/></g></g></g><g fill="#727880" fill-opacity="1"><g transform="translate(332.243134, 206.300012)"><g><path d="M 5.609375 -8.734375 L 5.609375 -6.90625 L 3.96875 -6.90625 L 3.96875 -2.6875 C 3.96875 -2.351562 4.039062 -2.125 4.1875 -2 C 4.34375 -1.882812 4.539062 -1.828125 4.78125 -1.828125 C 4.894531 -1.828125 5.007812 -1.835938 5.125 -1.859375 C 5.238281 -1.878906 5.328125 -1.894531 5.390625 -1.90625 L 5.765625 -0.109375 C 5.640625 -0.0664062 5.46875 -0.0195312 5.25 0.03125 C 5.03125 0.0820312 4.765625 0.113281 4.453125 0.125 C 3.578125 0.15625 2.875 -0.0351562 2.34375 -0.453125 C 1.8125 -0.867188 1.546875 -1.503906 1.546875 -2.359375 L 1.546875 -6.90625 L 0.359375 -6.90625 L 0.359375 -8.734375 L 1.546875 -8.734375 L 1.546875 -10.8125 L 3.96875 -10.8125 L 3.96875 -8.734375 Z M 5.609375 -8.734375 "/></g></g></g><g fill="#727880" fill-opacity="1"><g transform="translate(338.057465, 206.300012)"><g><path d="M 0.96875 0 L 0.96875 -8.734375 L 3.390625 -8.734375 L 3.390625 0 Z M 2.1875 -9.859375 C 1.832031 -9.859375 1.523438 -9.976562 1.265625 -10.21875 C 1.003906 -10.457031 0.875 -10.742188 0.875 -11.078125 C 0.875 -11.410156 1.003906 -11.695312 1.265625 -11.9375 C 1.523438 -12.175781 1.832031 -12.296875 2.1875 -12.296875 C 2.550781 -12.296875 2.859375 -12.175781 3.109375 -11.9375 C 3.367188 -11.695312 3.5 -11.410156 3.5 -11.078125 C 3.5 -10.742188 3.367188 -10.457031 3.109375 -10.21875 C 2.859375 -9.976562 2.550781 -9.859375 2.1875 -9.859375 Z M 2.1875 -9.859375 "/></g></g></g><g fill="#727880" fill-opacity="1"><g transform="translate(342.008629, 206.300012)"><g><path d="M 4.90625 0.171875 C 4.019531 0.171875 3.253906 -0.015625 2.609375 -0.390625 C 1.972656 -0.765625 1.476562 -1.289062 1.125 -1.96875 C 0.78125 -2.644531 0.609375 -3.429688 0.609375 -4.328125 C 0.609375 -5.234375 0.78125 -6.019531 1.125 -6.6875 C 1.476562 -7.363281 1.972656 -7.890625 2.609375 -8.265625 C 3.253906 -8.648438 4.019531 -8.84375 4.90625 -8.84375 C 5.789062 -8.84375 6.550781 -8.648438 7.1875 -8.265625 C 7.832031 -7.890625 8.328125 -7.363281 8.671875 -6.6875 C 9.023438 -6.019531 9.203125 -5.234375 9.203125 -4.328125 C 9.203125 -3.429688 9.023438 -2.644531 8.671875 -1.96875 C 8.328125 -1.289062 7.832031 -0.765625 7.1875 -0.390625 C 6.550781 -0.015625 5.789062 0.171875 4.90625 0.171875 Z M 4.921875 -1.703125 C 5.515625 -1.703125 5.96875 -1.953125 6.28125 -2.453125 C 6.59375 -2.953125 6.75 -3.582031 6.75 -4.34375 C 6.75 -5.101562 6.59375 -5.734375 6.28125 -6.234375 C 5.96875 -6.742188 5.515625 -7 4.921875 -7 C 4.304688 -7 3.84375 -6.742188 3.53125 -6.234375 C 3.226562 -5.734375 3.078125 -5.101562 3.078125 -4.34375 C 3.078125 -3.582031 3.226562 -2.953125 3.53125 -2.453125 C 3.84375 -1.953125 4.304688 -1.703125 4.921875 -1.703125 Z M 4.921875 -1.703125 "/></g></g></g><g fill="#727880" fill-opacity="1"><g transform="translate(351.424323, 206.300012)"><g><path d="M 3.390625 -5.046875 L 3.390625 0 L 0.96875 0 L 0.96875 -8.734375 L 3.265625 -8.734375 L 3.265625 -7.1875 L 3.375 -7.1875 C 3.570312 -7.695312 3.894531 -8.097656 4.34375 -8.390625 C 4.800781 -8.691406 5.351562 -8.84375 6 -8.84375 C 6.90625 -8.84375 7.632812 -8.546875 8.1875 -7.953125 C 8.738281 -7.367188 9.015625 -6.570312 9.015625 -5.5625 L 9.015625 0 L 6.59375 0 L 6.59375 -5.125 C 6.59375 -5.65625 6.453125 -6.070312 6.171875 -6.375 C 5.898438 -6.675781 5.523438 -6.828125 5.046875 -6.828125 C 4.554688 -6.828125 4.15625 -6.671875 3.84375 -6.359375 C 3.539062 -6.046875 3.390625 -5.609375 3.390625 -5.046875 Z M 3.390625 -5.046875 "/></g></g></g><g fill="#727880" fill-opacity="1"><g transform="translate(124.444991, 228.050011)"><g><path d="M 1.015625 0 L 1.015625 -11.640625 L 3.46875 -11.640625 L 3.46875 -2.03125 L 8.453125 -2.03125 L 8.453125 0 Z M 1.015625 0 "/></g></g></g><g fill="#727880" fill-opacity="1"><g transform="translate(133.122238, 228.050011)"><g><path d="M 3.453125 0.171875 C 2.617188 0.171875 1.925781 -0.046875 1.375 -0.484375 C 0.832031 -0.921875 0.5625 -1.570312 0.5625 -2.4375 C 0.5625 -3.09375 0.710938 -3.601562 1.015625 -3.96875 C 1.328125 -4.34375 1.726562 -4.613281 2.21875 -4.78125 C 2.71875 -4.957031 3.253906 -5.070312 3.828125 -5.125 C 4.585938 -5.195312 5.128906 -5.273438 5.453125 -5.359375 C 5.785156 -5.441406 5.953125 -5.625 5.953125 -5.90625 L 5.953125 -5.9375 C 5.953125 -6.300781 5.835938 -6.582031 5.609375 -6.78125 C 5.378906 -6.976562 5.0625 -7.078125 4.65625 -7.078125 C 4.21875 -7.078125 3.867188 -6.976562 3.609375 -6.78125 C 3.359375 -6.59375 3.191406 -6.351562 3.109375 -6.0625 L 0.859375 -6.25 C 1.023438 -7.039062 1.4375 -7.671875 2.09375 -8.140625 C 2.757812 -8.609375 3.617188 -8.84375 4.671875 -8.84375 C 5.316406 -8.84375 5.921875 -8.738281 6.484375 -8.53125 C 7.046875 -8.332031 7.5 -8.015625 7.84375 -7.578125 C 8.195312 -7.140625 8.375 -6.578125 8.375 -5.890625 L 8.375 0 L 6.078125 0 L 6.078125 -1.203125 L 6 -1.203125 C 5.789062 -0.804688 5.472656 -0.476562 5.046875 -0.21875 C 4.628906 0.0390625 4.097656 0.171875 3.453125 0.171875 Z M 4.140625 -1.5 C 4.671875 -1.5 5.109375 -1.65625 5.453125 -1.96875 C 5.796875 -2.28125 5.96875 -2.664062 5.96875 -3.125 L 5.96875 -4.046875 C 5.875 -3.984375 5.726562 -3.925781 5.53125 -3.875 C 5.332031 -3.820312 5.117188 -3.773438 4.890625 -3.734375 C 4.660156 -3.703125 4.457031 -3.675781 4.28125 -3.65625 C 3.851562 -3.59375 3.507812 -3.472656 3.25 -3.296875 C 3 -3.117188 2.875 -2.859375 2.875 -2.515625 C 2.875 -2.179688 2.992188 -1.925781 3.234375 -1.75 C 3.472656 -1.582031 3.773438 -1.5 4.140625 -1.5 Z M 4.140625 -1.5 "/></g></g></g><g fill="#727880" fill-opacity="1"><g transform="translate(142.00398, 228.050011)"><g><path d="M 1.015625 0 L 1.015625 -11.640625 L 3.4375 -11.640625 L 3.4375 -7.265625 L 3.5 -7.265625 C 3.613281 -7.503906 3.769531 -7.742188 3.96875 -7.984375 C 4.164062 -8.222656 4.429688 -8.425781 4.765625 -8.59375 C 5.097656 -8.757812 5.503906 -8.84375 5.984375 -8.84375 C 6.628906 -8.84375 7.21875 -8.675781 7.75 -8.34375 C 8.28125 -8.007812 8.707031 -7.507812 9.03125 -6.84375 C 9.351562 -6.1875 9.515625 -5.359375 9.515625 -4.359375 C 9.515625 -3.378906 9.359375 -2.554688 9.046875 -1.890625 C 8.734375 -1.222656 8.3125 -0.71875 7.78125 -0.375 C 7.25 -0.03125 6.648438 0.140625 5.984375 0.140625 C 5.515625 0.140625 5.113281 0.0625 4.78125 -0.09375 C 4.457031 -0.25 4.191406 -0.441406 3.984375 -0.671875 C 3.773438 -0.910156 3.613281 -1.148438 3.5 -1.390625 L 3.390625 -1.390625 L 3.390625 0 Z M 3.375 -4.359375 C 3.375 -3.585938 3.535156 -2.960938 3.859375 -2.484375 C 4.179688 -2.015625 4.632812 -1.78125 5.21875 -1.78125 C 5.8125 -1.78125 6.265625 -2.019531 6.578125 -2.5 C 6.890625 -2.976562 7.046875 -3.597656 7.046875 -4.359375 C 7.046875 -5.117188 6.890625 -5.734375 6.578125 -6.203125 C 6.265625 -6.679688 5.8125 -6.921875 5.21875 -6.921875 C 4.625 -6.921875 4.164062 -6.6875 3.84375 -6.21875 C 3.53125 -5.757812 3.375 -5.140625 3.375 -4.359375 Z M 3.375 -4.359375 "/></g></g></g><g fill="#727880" fill-opacity="1"><g transform="translate(151.766185, 228.050011)"><g/></g></g><g fill="#727880" fill-opacity="1"><g transform="translate(155.075478, 228.050011)"><g><path d="M 5.734375 -8.734375 L 5.734375 -6.90625 L 4 -6.90625 L 4 0 L 1.578125 0 L 1.578125 -6.90625 L 0.359375 -6.90625 L 0.359375 -8.734375 L 1.578125 -8.734375 L 1.578125 -9.359375 C 1.578125 -10.304688 1.847656 -11.015625 2.390625 -11.484375 C 2.941406 -11.953125 3.628906 -12.1875 4.453125 -12.1875 C 4.816406 -12.1875 5.15625 -12.15625 5.46875 -12.09375 C 5.78125 -12.039062 6.007812 -11.988281 6.15625 -11.9375 L 5.734375 -10.125 C 5.640625 -10.15625 5.519531 -10.179688 5.375 -10.203125 C 5.238281 -10.234375 5.097656 -10.25 4.953125 -10.25 C 4.597656 -10.25 4.347656 -10.164062 4.203125 -10 C 4.066406 -9.832031 4 -9.601562 4 -9.3125 L 4 -8.734375 Z M 5.734375 -8.734375 "/></g></g></g><g fill="#727880" fill-opacity="1"><g transform="translate(160.923895, 228.050011)"><g><path d="M 4.90625 0.171875 C 4.019531 0.171875 3.253906 -0.015625 2.609375 -0.390625 C 1.972656 -0.765625 1.476562 -1.289062 1.125 -1.96875 C 0.78125 -2.644531 0.609375 -3.429688 0.609375 -4.328125 C 0.609375 -5.234375 0.78125 -6.019531 1.125 -6.6875 C 1.476562 -7.363281 1.972656 -7.890625 2.609375 -8.265625 C 3.253906 -8.648438 4.019531 -8.84375 4.90625 -8.84375 C 5.789062 -8.84375 6.550781 -8.648438 7.1875 -8.265625 C 7.832031 -7.890625 8.328125 -7.363281 8.671875 -6.6875 C 9.023438 -6.019531 9.203125 -5.234375 9.203125 -4.328125 C 9.203125 -3.429688 9.023438 -2.644531 8.671875 -1.96875 C 8.328125 -1.289062 7.832031 -0.765625 7.1875 -0.390625 C 6.550781 -0.015625 5.789062 0.171875 4.90625 0.171875 Z M 4.921875 -1.703125 C 5.515625 -1.703125 5.96875 -1.953125 6.28125 -2.453125 C 6.59375 -2.953125 6.75 -3.582031 6.75 -4.34375 C 6.75 -5.101562 6.59375 -5.734375 6.28125 -6.234375 C 5.96875 -6.742188 5.515625 -7 4.921875 -7 C 4.304688 -7 3.84375 -6.742188 3.53125 -6.234375 C 3.226562 -5.734375 3.078125 -5.101562 3.078125 -4.34375 C 3.078125 -3.582031 3.226562 -2.953125 3.53125 -2.453125 C 3.84375 -1.953125 4.304688 -1.703125 4.921875 -1.703125 Z M 4.921875 -1.703125 "/></g></g></g><g fill="#727880" fill-opacity="1"><g transform="translate(170.339595, 228.050011)"><g><path d="M 0.96875 0 L 0.96875 -8.734375 L 3.3125 -8.734375 L 3.3125 -7.203125 L 3.40625 -7.203125 C 3.5625 -7.742188 3.828125 -8.15625 4.203125 -8.4375 C 4.578125 -8.71875 5.007812 -8.859375 5.5 -8.859375 C 5.738281 -8.859375 5.957031 -8.828125 6.15625 -8.765625 C 6.351562 -8.710938 6.53125 -8.632812 6.6875 -8.53125 L 5.96875 -6.53125 C 5.851562 -6.59375 5.726562 -6.640625 5.59375 -6.671875 C 5.457031 -6.710938 5.304688 -6.734375 5.140625 -6.734375 C 4.648438 -6.734375 4.234375 -6.566406 3.890625 -6.234375 C 3.554688 -5.898438 3.390625 -5.46875 3.390625 -4.9375 L 3.390625 0 Z M 0.96875 0 "/></g></g></g><g fill="#727880" fill-opacity="1"><g transform="translate(176.795819, 228.050011)"><g/></g></g><g fill="#727880" fill-opacity="1"><g transform="translate(180.105113, 228.050011)"><g><path d="M 5.609375 -8.734375 L 5.609375 -6.90625 L 3.96875 -6.90625 L 3.96875 -2.6875 C 3.96875 -2.351562 4.039062 -2.125 4.1875 -2 C 4.34375 -1.882812 4.539062 -1.828125 4.78125 -1.828125 C 4.894531 -1.828125 5.007812 -1.835938 5.125 -1.859375 C 5.238281 -1.878906 5.328125 -1.894531 5.390625 -1.90625 L 5.765625 -0.109375 C 5.640625 -0.0664062 5.46875 -0.0195312 5.25 0.03125 C 5.03125 0.0820312 4.765625 0.113281 4.453125 0.125 C 3.578125 0.15625 2.875 -0.0351562 2.34375 -0.453125 C 1.8125 -0.867188 1.546875 -1.503906 1.546875 -2.359375 L 1.546875 -6.90625 L 0.359375 -6.90625 L 0.359375 -8.734375 L 1.546875 -8.734375 L 1.546875 -10.8125 L 3.96875 -10.8125 L 3.96875 -8.734375 Z M 5.609375 -8.734375 "/></g></g></g><g fill="#727880" fill-opacity="1"><g transform="translate(185.919449, 228.050011)"><g><path d="M 3.390625 -5.046875 L 3.390625 0 L 0.96875 0 L 0.96875 -11.640625 L 3.3125 -11.640625 L 3.3125 -7.1875 L 3.421875 -7.1875 C 3.617188 -7.695312 3.9375 -8.097656 4.375 -8.390625 C 4.8125 -8.691406 5.363281 -8.84375 6.03125 -8.84375 C 6.9375 -8.84375 7.664062 -8.550781 8.21875 -7.96875 C 8.769531 -7.382812 9.046875 -6.582031 9.046875 -5.5625 L 9.046875 0 L 6.625 0 L 6.625 -5.125 C 6.625 -5.664062 6.488281 -6.082031 6.21875 -6.375 C 5.945312 -6.675781 5.5625 -6.828125 5.0625 -6.828125 C 4.570312 -6.828125 4.171875 -6.671875 3.859375 -6.359375 C 3.546875 -6.046875 3.390625 -5.609375 3.390625 -5.046875 Z M 3.390625 -5.046875 "/></g></g></g><g fill="#727880" fill-opacity="1"><g transform="translate(195.505564, 228.050011)"><g><path d="M 4.9375 0.171875 C 4.050781 0.171875 3.28125 -0.0078125 2.625 -0.375 C 1.976562 -0.738281 1.476562 -1.253906 1.125 -1.921875 C 0.78125 -2.597656 0.609375 -3.398438 0.609375 -4.328125 C 0.609375 -5.222656 0.78125 -6.007812 1.125 -6.6875 C 1.476562 -7.363281 1.972656 -7.890625 2.609375 -8.265625 C 3.242188 -8.648438 3.988281 -8.84375 4.84375 -8.84375 C 5.613281 -8.84375 6.304688 -8.675781 6.921875 -8.34375 C 7.546875 -8.019531 8.039062 -7.53125 8.40625 -6.875 C 8.769531 -6.21875 8.953125 -5.394531 8.953125 -4.40625 L 8.953125 -3.75 L 3 -3.75 L 3 -3.734375 C 3 -3.085938 3.175781 -2.578125 3.53125 -2.203125 C 3.894531 -1.828125 4.378906 -1.640625 4.984375 -1.640625 C 5.390625 -1.640625 5.738281 -1.722656 6.03125 -1.890625 C 6.332031 -2.054688 6.539062 -2.304688 6.65625 -2.640625 L 8.890625 -2.5 C 8.722656 -1.6875 8.289062 -1.035156 7.59375 -0.546875 C 6.90625 -0.0664062 6.019531 0.171875 4.9375 0.171875 Z M 3 -5.25 L 6.671875 -5.25 C 6.671875 -5.757812 6.503906 -6.179688 6.171875 -6.515625 C 5.835938 -6.859375 5.410156 -7.03125 4.890625 -7.03125 C 4.347656 -7.03125 3.90625 -6.851562 3.5625 -6.5 C 3.21875 -6.15625 3.03125 -5.738281 3 -5.25 Z M 3 -5.25 "/></g></g></g><g fill="#727880" fill-opacity="1"><g transform="translate(204.665649, 228.050011)"><g/></g></g><g fill="#727880" fill-opacity="1"><g transform="translate(207.974942, 228.050011)"><g><path d="M 3.46875 -11.640625 L 3.46875 0 L 1.015625 0 L 1.015625 -11.640625 Z M 3.46875 -11.640625 "/></g></g></g><g fill="#727880" fill-opacity="1"><g transform="translate(212.062445, 228.050011)"><g><path d="M 3.390625 -5.046875 L 3.390625 0 L 0.96875 0 L 0.96875 -8.734375 L 3.265625 -8.734375 L 3.265625 -7.1875 L 3.375 -7.1875 C 3.570312 -7.695312 3.894531 -8.097656 4.34375 -8.390625 C 4.800781 -8.691406 5.351562 -8.84375 6 -8.84375 C 6.90625 -8.84375 7.632812 -8.546875 8.1875 -7.953125 C 8.738281 -7.367188 9.015625 -6.570312 9.015625 -5.5625 L 9.015625 0 L 6.59375 0 L 6.59375 -5.125 C 6.59375 -5.65625 6.453125 -6.070312 6.171875 -6.375 C 5.898438 -6.675781 5.523438 -6.828125 5.046875 -6.828125 C 4.554688 -6.828125 4.15625 -6.671875 3.84375 -6.359375 C 3.539062 -6.046875 3.390625 -5.609375 3.390625 -5.046875 Z M 3.390625 -5.046875 "/></g></g></g><g fill="#727880" fill-opacity="1"><g transform="translate(221.608791, 228.050011)"><g><path d="M 5.609375 -8.734375 L 5.609375 -6.90625 L 3.96875 -6.90625 L 3.96875 -2.6875 C 3.96875 -2.351562 4.039062 -2.125 4.1875 -2 C 4.34375 -1.882812 4.539062 -1.828125 4.78125 -1.828125 C 4.894531 -1.828125 5.007812 -1.835938 5.125 -1.859375 C 5.238281 -1.878906 5.328125 -1.894531 5.390625 -1.90625 L 5.765625 -0.109375 C 5.640625 -0.0664062 5.46875 -0.0195312 5.25 0.03125 C 5.03125 0.0820312 4.765625 0.113281 4.453125 0.125 C 3.578125 0.15625 2.875 -0.0351562 2.34375 -0.453125 C 1.8125 -0.867188 1.546875 -1.503906 1.546875 -2.359375 L 1.546875 -6.90625 L 0.359375 -6.90625 L 0.359375 -8.734375 L 1.546875 -8.734375 L 1.546875 -10.8125 L 3.96875 -10.8125 L 3.96875 -8.734375 Z M 5.609375 -8.734375 "/></g></g></g><g fill="#727880" fill-opacity="1"><g transform="translate(227.423134, 228.050011)"><g><path d="M 4.9375 0.171875 C 4.050781 0.171875 3.28125 -0.0078125 2.625 -0.375 C 1.976562 -0.738281 1.476562 -1.253906 1.125 -1.921875 C 0.78125 -2.597656 0.609375 -3.398438 0.609375 -4.328125 C 0.609375 -5.222656 0.78125 -6.007812 1.125 -6.6875 C 1.476562 -7.363281 1.972656 -7.890625 2.609375 -8.265625 C 3.242188 -8.648438 3.988281 -8.84375 4.84375 -8.84375 C 5.613281 -8.84375 6.304688 -8.675781 6.921875 -8.34375 C 7.546875 -8.019531 8.039062 -7.53125 8.40625 -6.875 C 8.769531 -6.21875 8.953125 -5.394531 8.953125 -4.40625 L 8.953125 -3.75 L 3 -3.75 L 3 -3.734375 C 3 -3.085938 3.175781 -2.578125 3.53125 -2.203125 C 3.894531 -1.828125 4.378906 -1.640625 4.984375 -1.640625 C 5.390625 -1.640625 5.738281 -1.722656 6.03125 -1.890625 C 6.332031 -2.054688 6.539062 -2.304688 6.65625 -2.640625 L 8.890625 -2.5 C 8.722656 -1.6875 8.289062 -1.035156 7.59375 -0.546875 C 6.90625 -0.0664062 6.019531 0.171875 4.9375 0.171875 Z M 3 -5.25 L 6.671875 -5.25 C 6.671875 -5.757812 6.503906 -6.179688 6.171875 -6.515625 C 5.835938 -6.859375 5.410156 -7.03125 4.890625 -7.03125 C 4.347656 -7.03125 3.90625 -6.851562 3.5625 -6.5 C 3.21875 -6.15625 3.03125 -5.738281 3 -5.25 Z M 3 -5.25 "/></g></g></g><g fill="#727880" fill-opacity="1"><g transform="translate(236.583213, 228.050011)"><g><path d="M 0.96875 0 L 0.96875 -8.734375 L 3.3125 -8.734375 L 3.3125 -7.203125 L 3.40625 -7.203125 C 3.5625 -7.742188 3.828125 -8.15625 4.203125 -8.4375 C 4.578125 -8.71875 5.007812 -8.859375 5.5 -8.859375 C 5.738281 -8.859375 5.957031 -8.828125 6.15625 -8.765625 C 6.351562 -8.710938 6.53125 -8.632812 6.6875 -8.53125 L 5.96875 -6.53125 C 5.851562 -6.59375 5.726562 -6.640625 5.59375 -6.671875 C 5.457031 -6.710938 5.304688 -6.734375 5.140625 -6.734375 C 4.648438 -6.734375 4.234375 -6.566406 3.890625 -6.234375 C 3.554688 -5.898438 3.390625 -5.46875 3.390625 -4.9375 L 3.390625 0 Z M 0.96875 0 "/></g></g></g><g fill="#727880" fill-opacity="1"><g transform="translate(243.039443, 228.050011)"><g><path d="M 3.390625 -5.046875 L 3.390625 0 L 0.96875 0 L 0.96875 -8.734375 L 3.265625 -8.734375 L 3.265625 -7.1875 L 3.375 -7.1875 C 3.570312 -7.695312 3.894531 -8.097656 4.34375 -8.390625 C 4.800781 -8.691406 5.351562 -8.84375 6 -8.84375 C 6.90625 -8.84375 7.632812 -8.546875 8.1875 -7.953125 C 8.738281 -7.367188 9.015625 -6.570312 9.015625 -5.5625 L 9.015625 0 L 6.59375 0 L 6.59375 -5.125 C 6.59375 -5.65625 6.453125 -6.070312 6.171875 -6.375 C 5.898438 -6.675781 5.523438 -6.828125 5.046875 -6.828125 C 4.554688 -6.828125 4.15625 -6.671875 3.84375 -6.359375 C 3.539062 -6.046875 3.390625 -5.609375 3.390625 -5.046875 Z M 3.390625 -5.046875 "/></g></g></g><g fill="#727880" fill-opacity="1"><g transform="translate(252.585783, 228.050011)"><g><path d="M 4.9375 0.171875 C 4.050781 0.171875 3.28125 -0.0078125 2.625 -0.375 C 1.976562 -0.738281 1.476562 -1.253906 1.125 -1.921875 C 0.78125 -2.597656 0.609375 -3.398438 0.609375 -4.328125 C 0.609375 -5.222656 0.78125 -6.007812 1.125 -6.6875 C 1.476562 -7.363281 1.972656 -7.890625 2.609375 -8.265625 C 3.242188 -8.648438 3.988281 -8.84375 4.84375 -8.84375 C 5.613281 -8.84375 6.304688 -8.675781 6.921875 -8.34375 C 7.546875 -8.019531 8.039062 -7.53125 8.40625 -6.875 C 8.769531 -6.21875 8.953125 -5.394531 8.953125 -4.40625 L 8.953125 -3.75 L 3 -3.75 L 3 -3.734375 C 3 -3.085938 3.175781 -2.578125 3.53125 -2.203125 C 3.894531 -1.828125 4.378906 -1.640625 4.984375 -1.640625 C 5.390625 -1.640625 5.738281 -1.722656 6.03125 -1.890625 C 6.332031 -2.054688 6.539062 -2.304688 6.65625 -2.640625 L 8.890625 -2.5 C 8.722656 -1.6875 8.289062 -1.035156 7.59375 -0.546875 C 6.90625 -0.0664062 6.019531 0.171875 4.9375 0.171875 Z M 3 -5.25 L 6.671875 -5.25 C 6.671875 -5.757812 6.503906 -6.179688 6.171875 -6.515625 C 5.835938 -6.859375 5.410156 -7.03125 4.890625 -7.03125 C 4.347656 -7.03125 3.90625 -6.851562 3.5625 -6.5 C 3.21875 -6.15625 3.03125 -5.738281 3 -5.25 Z M 3 -5.25 "/></g></g></g><g fill="#727880" fill-opacity="1"><g transform="translate(261.745862, 228.050011)"><g><path d="M 5.609375 -8.734375 L 5.609375 -6.90625 L 3.96875 -6.90625 L 3.96875 -2.6875 C 3.96875 -2.351562 4.039062 -2.125 4.1875 -2 C 4.34375 -1.882812 4.539062 -1.828125 4.78125 -1.828125 C 4.894531 -1.828125 5.007812 -1.835938 5.125 -1.859375 C 5.238281 -1.878906 5.328125 -1.894531 5.390625 -1.90625 L 5.765625 -0.109375 C 5.640625 -0.0664062 5.46875 -0.0195312 5.25 0.03125 C 5.03125 0.0820312 4.765625 0.113281 4.453125 0.125 C 3.578125 0.15625 2.875 -0.0351562 2.34375 -0.453125 C 1.8125 -0.867188 1.546875 -1.503906 1.546875 -2.359375 L 1.546875 -6.90625 L 0.359375 -6.90625 L 0.359375 -8.734375 L 1.546875 -8.734375 L 1.546875 -10.8125 L 3.96875 -10.8125 L 3.96875 -8.734375 Z M 5.609375 -8.734375 "/></g></g></g><g fill="#727880" fill-opacity="1"><g transform="translate(267.560204, 228.050011)"><g/></g></g><g fill="#727880" fill-opacity="1"><g transform="translate(270.869504, 228.050011)"><g><path d="M 4.90625 0.171875 C 4.019531 0.171875 3.253906 -0.015625 2.609375 -0.390625 C 1.972656 -0.765625 1.476562 -1.289062 1.125 -1.96875 C 0.78125 -2.644531 0.609375 -3.429688 0.609375 -4.328125 C 0.609375 -5.234375 0.78125 -6.019531 1.125 -6.6875 C 1.476562 -7.363281 1.972656 -7.890625 2.609375 -8.265625 C 3.253906 -8.648438 4.019531 -8.84375 4.90625 -8.84375 C 5.789062 -8.84375 6.550781 -8.648438 7.1875 -8.265625 C 7.832031 -7.890625 8.328125 -7.363281 8.671875 -6.6875 C 9.023438 -6.019531 9.203125 -5.234375 9.203125 -4.328125 C 9.203125 -3.429688 9.023438 -2.644531 8.671875 -1.96875 C 8.328125 -1.289062 7.832031 -0.765625 7.1875 -0.390625 C 6.550781 -0.015625 5.789062 0.171875 4.90625 0.171875 Z M 4.921875 -1.703125 C 5.515625 -1.703125 5.96875 -1.953125 6.28125 -2.453125 C 6.59375 -2.953125 6.75 -3.582031 6.75 -4.34375 C 6.75 -5.101562 6.59375 -5.734375 6.28125 -6.234375 C 5.96875 -6.742188 5.515625 -7 4.921875 -7 C 4.304688 -7 3.84375 -6.742188 3.53125 -6.234375 C 3.226562 -5.734375 3.078125 -5.101562 3.078125 -4.34375 C 3.078125 -3.582031 3.226562 -2.953125 3.53125 -2.453125 C 3.84375 -1.953125 4.304688 -1.703125 4.921875 -1.703125 Z M 4.921875 -1.703125 "/></g></g></g><g fill="#727880" fill-opacity="1"><g transform="translate(280.285198, 228.050011)"><g><path d="M 5.734375 -8.734375 L 5.734375 -6.90625 L 4 -6.90625 L 4 0 L 1.578125 0 L 1.578125 -6.90625 L 0.359375 -6.90625 L 0.359375 -8.734375 L 1.578125 -8.734375 L 1.578125 -9.359375 C 1.578125 -10.304688 1.847656 -11.015625 2.390625 -11.484375 C 2.941406 -11.953125 3.628906 -12.1875 4.453125 -12.1875 C 4.816406 -12.1875 5.15625 -12.15625 5.46875 -12.09375 C 5.78125 -12.039062 6.007812 -11.988281 6.15625 -11.9375 L 5.734375 -10.125 C 5.640625 -10.15625 5.519531 -10.179688 5.375 -10.203125 C 5.238281 -10.234375 5.097656 -10.25 4.953125 -10.25 C 4.597656 -10.25 4.347656 -10.164062 4.203125 -10 C 4.066406 -9.832031 4 -9.601562 4 -9.3125 L 4 -8.734375 Z M 5.734375 -8.734375 "/></g></g></g><g fill="#727880" fill-opacity="1"><g transform="translate(286.133621, 228.050011)"><g/></g></g><g fill="#727880" fill-opacity="1"><g transform="translate(289.44292, 228.050011)"><g><path d="M 0.5625 -9.609375 L 0.5625 -11.640625 L 10.125 -11.640625 L 10.125 -9.609375 L 6.5625 -9.609375 L 6.5625 0 L 4.125 0 L 4.125 -9.609375 Z M 0.5625 -9.609375 "/></g></g></g><g fill="#727880" fill-opacity="1"><g transform="translate(299.733401, 228.050011)"><g><path d="M 3.390625 -5.046875 L 3.390625 0 L 0.96875 0 L 0.96875 -11.640625 L 3.3125 -11.640625 L 3.3125 -7.1875 L 3.421875 -7.1875 C 3.617188 -7.695312 3.9375 -8.097656 4.375 -8.390625 C 4.8125 -8.691406 5.363281 -8.84375 6.03125 -8.84375 C 6.9375 -8.84375 7.664062 -8.550781 8.21875 -7.96875 C 8.769531 -7.382812 9.046875 -6.582031 9.046875 -5.5625 L 9.046875 0 L 6.625 0 L 6.625 -5.125 C 6.625 -5.664062 6.488281 -6.082031 6.21875 -6.375 C 5.945312 -6.675781 5.5625 -6.828125 5.0625 -6.828125 C 4.570312 -6.828125 4.171875 -6.671875 3.859375 -6.359375 C 3.546875 -6.046875 3.390625 -5.609375 3.390625 -5.046875 Z M 3.390625 -5.046875 "/></g></g></g><g fill="#727880" fill-opacity="1"><g transform="translate(309.319521, 228.050011)"><g><path d="M 0.96875 0 L 0.96875 -8.734375 L 3.390625 -8.734375 L 3.390625 0 Z M 2.1875 -9.859375 C 1.832031 -9.859375 1.523438 -9.976562 1.265625 -10.21875 C 1.003906 -10.457031 0.875 -10.742188 0.875 -11.078125 C 0.875 -11.410156 1.003906 -11.695312 1.265625 -11.9375 C 1.523438 -12.175781 1.832031 -12.296875 2.1875 -12.296875 C 2.550781 -12.296875 2.859375 -12.175781 3.109375 -11.9375 C 3.367188 -11.695312 3.5 -11.410156 3.5 -11.078125 C 3.5 -10.742188 3.367188 -10.457031 3.109375 -10.21875 C 2.859375 -9.976562 2.550781 -9.859375 2.1875 -9.859375 Z M 2.1875 -9.859375 "/></g></g></g><g fill="#727880" fill-opacity="1"><g transform="translate(313.270696, 228.050011)"><g><path d="M 3.390625 -5.046875 L 3.390625 0 L 0.96875 0 L 0.96875 -8.734375 L 3.265625 -8.734375 L 3.265625 -7.1875 L 3.375 -7.1875 C 3.570312 -7.695312 3.894531 -8.097656 4.34375 -8.390625 C 4.800781 -8.691406 5.351562 -8.84375 6 -8.84375 C 6.90625 -8.84375 7.632812 -8.546875 8.1875 -7.953125 C 8.738281 -7.367188 9.015625 -6.570312 9.015625 -5.5625 L 9.015625 0 L 6.59375 0 L 6.59375 -5.125 C 6.59375 -5.65625 6.453125 -6.070312 6.171875 -6.375 C 5.898438 -6.675781 5.523438 -6.828125 5.046875 -6.828125 C 4.554688 -6.828125 4.15625 -6.671875 3.84375 -6.359375 C 3.539062 -6.046875 3.390625 -5.609375 3.390625 -5.046875 Z M 3.390625 -5.046875 "/></g></g></g><g fill="#727880" fill-opacity="1"><g transform="translate(322.817048, 228.050011)"><g><path d="M 4.890625 3.390625 C 3.722656 3.390625 2.800781 3.160156 2.125 2.703125 C 1.457031 2.242188 1.050781 1.679688 0.90625 1.015625 L 3.140625 0.71875 C 3.242188 0.957031 3.4375 1.171875 3.71875 1.359375 C 4.007812 1.554688 4.421875 1.65625 4.953125 1.65625 C 5.484375 1.65625 5.914062 1.53125 6.25 1.28125 C 6.59375 1.03125 6.765625 0.617188 6.765625 0.046875 L 6.765625 -1.546875 L 6.671875 -1.546875 C 6.515625 -1.179688 6.234375 -0.851562 5.828125 -0.5625 C 5.429688 -0.269531 4.882812 -0.125 4.1875 -0.125 C 3.53125 -0.125 2.929688 -0.273438 2.390625 -0.578125 C 1.859375 -0.890625 1.429688 -1.359375 1.109375 -1.984375 C 0.796875 -2.617188 0.640625 -3.414062 0.640625 -4.375 C 0.640625 -5.375 0.800781 -6.203125 1.125 -6.859375 C 1.445312 -7.515625 1.875 -8.007812 2.40625 -8.34375 C 2.945312 -8.675781 3.535156 -8.84375 4.171875 -8.84375 C 4.660156 -8.84375 5.066406 -8.757812 5.390625 -8.59375 C 5.722656 -8.425781 5.992188 -8.222656 6.203125 -7.984375 C 6.410156 -7.742188 6.566406 -7.503906 6.671875 -7.265625 L 6.765625 -7.265625 L 6.765625 -8.734375 L 9.171875 -8.734375 L 9.171875 0.078125 C 9.171875 0.804688 8.984375 1.414062 8.609375 1.90625 C 8.242188 2.394531 7.738281 2.765625 7.09375 3.015625 C 6.457031 3.265625 5.722656 3.390625 4.890625 3.390625 Z M 4.953125 -1.9375 C 5.535156 -1.9375 5.984375 -2.148438 6.296875 -2.578125 C 6.617188 -3.015625 6.78125 -3.617188 6.78125 -4.390625 C 6.78125 -5.160156 6.617188 -5.773438 6.296875 -6.234375 C 5.984375 -6.691406 5.535156 -6.921875 4.953125 -6.921875 C 4.347656 -6.921875 3.890625 -6.679688 3.578125 -6.203125 C 3.265625 -5.734375 3.109375 -5.128906 3.109375 -4.390625 C 3.109375 -3.640625 3.265625 -3.039062 3.578125 -2.59375 C 3.898438 -2.15625 4.359375 -1.9375 4.953125 -1.9375 Z M 4.953125 -1.9375 "/></g></g></g><g fill="#727880" fill-opacity="1"><g transform="translate(332.545166, 228.050011)"><g><path d="M 8.234375 -6.234375 L 6.015625 -6.109375 C 5.953125 -6.378906 5.796875 -6.613281 5.546875 -6.8125 C 5.304688 -7.019531 4.972656 -7.125 4.546875 -7.125 C 4.171875 -7.125 3.851562 -7.046875 3.59375 -6.890625 C 3.332031 -6.734375 3.207031 -6.523438 3.21875 -6.265625 C 3.207031 -6.054688 3.285156 -5.878906 3.453125 -5.734375 C 3.628906 -5.585938 3.921875 -5.472656 4.328125 -5.390625 L 5.90625 -5.0625 C 7.582031 -4.71875 8.421875 -3.929688 8.421875 -2.703125 C 8.421875 -2.128906 8.253906 -1.625 7.921875 -1.1875 C 7.585938 -0.757812 7.128906 -0.425781 6.546875 -0.1875 C 5.960938 0.0507812 5.296875 0.171875 4.546875 0.171875 C 3.390625 0.171875 2.46875 -0.0664062 1.78125 -0.546875 C 1.09375 -1.035156 0.691406 -1.695312 0.578125 -2.53125 L 2.953125 -2.65625 C 3.035156 -2.300781 3.210938 -2.03125 3.484375 -1.84375 C 3.753906 -1.664062 4.109375 -1.578125 4.546875 -1.578125 C 4.972656 -1.578125 5.3125 -1.660156 5.5625 -1.828125 C 5.820312 -1.992188 5.957031 -2.203125 5.96875 -2.453125 C 5.957031 -2.890625 5.582031 -3.179688 4.84375 -3.328125 L 3.328125 -3.625 C 1.640625 -3.96875 0.800781 -4.800781 0.8125 -6.125 C 0.8125 -6.96875 1.144531 -7.628906 1.8125 -8.109375 C 2.488281 -8.597656 3.390625 -8.84375 4.515625 -8.84375 C 5.617188 -8.84375 6.484375 -8.609375 7.109375 -8.140625 C 7.742188 -7.671875 8.117188 -7.035156 8.234375 -6.234375 Z M 8.234375 -6.234375 "/></g></g></g><g fill="#060644" fill-opacity="1"><g transform="translate(125.944991, 180.649983)"><g><path d="M 3.25 0 L 3.25 -6.59375 L 20.15625 -6.59375 L 21.6875 -8.140625 L 21.6875 -11.75 L 20.15625 -13.28125 L 6.859375 -13.28125 L 1.984375 -18.21875 L 1.984375 -27.546875 L 6.859375 -32.421875 L 28.078125 -32.421875 L 28.078125 -25.828125 L 11.609375 -25.828125 L 10.078125 -24.28125 L 10.078125 -21.421875 L 11.609375 -19.890625 L 24.90625 -19.890625 L 29.78125 -15 L 29.78125 -4.890625 L 24.90625 0 Z M 3.25 0 "/></g></g></g><g fill="#060644" fill-opacity="1"><g transform="translate(156.387331, 180.649983)"><g/></g></g><g fill="#060644" fill-opacity="1"><g transform="translate(165.8894, 180.649983)"><g><path d="M 9.28125 0 L 9.28125 -25.734375 L 0.21875 -25.734375 L 0.21875 -32.421875 L 26.578125 -32.421875 L 26.578125 -25.734375 L 17.515625 -25.734375 L 17.515625 0 Z M 9.28125 0 "/></g></g></g><g fill="#060644" fill-opacity="1"><g transform="translate(191.360622, 180.649983)"><g/></g></g><g fill="#060644" fill-opacity="1"><g transform="translate(200.862691, 180.649983)"><g><path d="M 3.078125 0 L 3.078125 -32.421875 L 27.71875 -32.421875 L 27.71875 -25.734375 L 11.3125 -25.734375 L 11.3125 -19.75 L 26.09375 -19.75 L 26.09375 -13.546875 L 11.3125 -13.546875 L 11.3125 -6.6875 L 27.71875 -6.6875 L 27.71875 0 Z M 3.078125 0 "/></g></g></g><g fill="#060644" fill-opacity="1"><g transform="translate(229.457366, 180.649983)"><g><path d="M 6.203125 0 L 1.3125 -4.890625 L 1.3125 -9.765625 L 6.203125 -14.65625 L 17.15625 -14.65625 L 17.15625 -16.1875 L 15.578125 -17.78125 L 4.046875 -17.78125 L 4.046875 -22.96875 L 20.453125 -22.96875 L 25.390625 -18.078125 L 25.390625 0 L 17.15625 0 L 17.15625 -3.125 L 14.125 0 Z M 11.046875 -4.484375 L 13.421875 -4.484375 L 17.15625 -8.234375 L 17.15625 -10.5625 L 11.046875 -10.5625 L 9.5 -9.015625 L 9.5 -6.03125 Z M 11.046875 -4.484375 "/></g></g></g><g fill="#060644" fill-opacity="1"><g transform="translate(255.940412, 180.649983)"><g/></g></g><g fill="#060644" fill-opacity="1"><g transform="translate(265.442487, 180.649983)"><g><path d="M 3.078125 0 L 3.078125 -32.421875 L 11.3125 -32.421875 L 11.3125 -6.6875 L 26.1875 -6.6875 L 26.1875 0 Z M 3.078125 0 "/></g></g></g><g fill="#060644" fill-opacity="1"><g transform="translate(290.957705, 180.649983)"><g/></g></g><g fill="#060644" fill-opacity="1"><g transform="translate(300.45978, 180.649983)"><g><path d="M 9.28125 0 L 9.28125 -25.734375 L 0.21875 -25.734375 L 0.21875 -32.421875 L 26.578125 -32.421875 L 26.578125 -25.734375 L 17.515625 -25.734375 L 17.515625 0 Z M 9.28125 0 "/></g></g></g><g fill="#060644" fill-opacity="1"><g transform="translate(325.931008, 180.649983)"><g><path d="M 2.859375 0 L 2.859375 -32.421875 L 11.09375 -32.421875 L 11.09375 -20.28125 L 14.4375 -23.015625 L 22.359375 -23.015625 L 27.234375 -18.078125 L 27.234375 0 L 19.015625 0 L 19.015625 -16.9375 L 17.515625 -18.34375 L 15.140625 -18.34375 L 11.09375 -14.921875 L 11.09375 0 Z M 2.859375 0 "/></g></g></g><g clip-path="url(#0e191f005a)"><path fill="#004aad" d="M 119.332031 140.5625 L 73.144531 124.5 C 72.703125 124.347656 72.226562 124.347656 71.785156 124.5 L 25.597656 140.5625 C 24.769531 140.851562 24.214844 141.632812 24.214844 142.503906 L 24.214844 184.394531 C 24.214844 208.101562 40.261719 229.433594 65.101562 238.734375 L 71.742188 241.222656 C 71.972656 241.308594 72.21875 241.351562 72.464844 241.351562 C 72.710938 241.351562 72.953125 241.308594 73.1875 241.222656 L 79.824219 238.734375 C 104.664062 229.433594 120.714844 208.101562 120.714844 184.394531 L 120.714844 142.503906 C 120.714844 141.632812 120.160156 140.851562 119.332031 140.5625 Z M 78.375 234.886719 L 72.464844 237.101562 L 66.550781 234.886719 C 43.335938 226.191406 28.335938 206.371094 28.335938 184.394531 L 28.335938 182.339844 L 56.441406 182.339844 C 56.984375 182.339844 57.511719 182.125 57.898438 181.738281 L 74.453125 165.21875 C 76.050781 166.371094 78.007812 167.058594 80.125 167.058594 C 85.484375 167.058594 89.84375 162.707031 89.84375 157.359375 C 89.84375 152.015625 85.484375 147.664062 80.125 147.664062 C 74.765625 147.664062 70.402344 152.011719 70.402344 157.359375 C 70.402344 159.105469 70.875 160.742188 71.691406 162.160156 L 55.585938 178.226562 L 28.335938 178.226562 L 28.335938 164.667969 L 44.492188 164.667969 C 45.039062 164.667969 45.5625 164.453125 45.949219 164.066406 L 56.484375 153.558594 C 57.289062 152.757812 57.289062 151.453125 56.484375 150.652344 C 55.679688 149.847656 54.375 149.847656 53.570312 150.652344 L 43.640625 160.558594 L 28.335938 160.558594 L 28.335938 143.964844 L 72.464844 128.621094 L 116.59375 143.96875 L 116.59375 174.582031 L 88.371094 174.582031 C 87.824219 174.582031 87.300781 174.800781 86.914062 175.183594 L 70.359375 191.703125 C 68.761719 190.550781 66.804688 189.863281 64.6875 189.863281 C 59.328125 189.863281 54.96875 194.214844 54.96875 199.5625 C 54.96875 204.910156 59.328125 209.257812 64.6875 209.257812 C 70.046875 209.257812 74.40625 204.910156 74.40625 199.5625 C 74.40625 197.816406 73.9375 196.179688 73.121094 194.761719 L 89.226562 178.695312 L 116.59375 178.695312 L 116.59375 184.394531 C 116.59375 187.054688 116.367188 189.683594 115.941406 192.265625 C 115.902344 192.261719 115.867188 192.253906 115.828125 192.253906 L 100.320312 192.253906 C 99.773438 192.253906 99.246094 192.46875 98.863281 192.855469 L 88.328125 203.363281 C 87.523438 204.164062 87.523438 205.464844 88.328125 206.269531 C 88.730469 206.671875 89.257812 206.871094 89.785156 206.871094 C 90.3125 206.871094 90.839844 206.671875 91.242188 206.269531 L 101.171875 196.363281 L 115.082031 196.363281 C 110.730469 213.351562 97.277344 227.808594 78.375 234.886719 Z M 74.527344 157.359375 C 74.527344 154.28125 77.035156 151.773438 80.125 151.773438 C 83.210938 151.773438 85.722656 154.28125 85.722656 157.359375 C 85.722656 160.441406 83.210938 162.945312 80.125 162.945312 C 77.035156 162.945312 74.527344 160.441406 74.527344 157.359375 Z M 70.285156 199.5625 C 70.285156 202.640625 67.773438 205.148438 64.6875 205.148438 C 61.601562 205.148438 59.089844 202.640625 59.089844 199.5625 C 59.089844 196.484375 61.601562 193.976562 64.6875 193.976562 C 67.773438 193.976562 70.285156 196.484375 70.285156 199.5625 Z M 70.285156 199.5625 " fill-opacity="1" fill-rule="nonzero"/></g></svg>